<svg width="141" height="54" viewBox="0 0 141 54" fill="none" xmlns="http://www.w3.org/2000/svg">
<path d="M49.1773 14.9913H47.5632L46.0292 11.5272H41.4908L39.9836 14.9913H38.3694L43.0489 4.22872H44.5052L49.1773 14.9913ZM45.459 10.1444L43.7843 6.21228L42.0903 10.1444H45.459ZM55.5723 5.59701H51.3201V8.88991H55.4097V10.244H51.3201V14.9909H49.8493V4.2284H55.5723V5.59701ZM64.2879 14.9913H62.4191L58.5311 9.87113H59.8441C60.6523 9.87113 61.3101 9.71921 61.8198 9.41724C62.4339 9.0513 62.7398 8.50032 62.7398 7.76118C62.7398 7.08413 62.4558 6.5423 61.8904 6.13852C61.3807 5.7773 60.7644 5.59701 60.0457 5.59701H58.1527V14.9913H56.6819V4.22872H59.7134C61.417 4.22872 62.6354 4.62556 63.3709 5.41892C63.8925 5.97966 64.1717 6.71629 64.2106 7.631C64.2447 8.42215 63.9875 9.17044 63.4436 9.87618C62.9001 10.5819 62.1937 10.9857 61.3224 11.0856L64.2882 14.9916L64.2879 14.9913ZM66.7344 14.9913H65.2635V4.22872H66.7344V14.9913ZM78.8765 11.867C77.5902 14.0646 75.8672 15.1624 73.707 15.1624C72.195 15.1624 70.8845 14.6587 69.7752 13.6513C68.6029 12.5894 68.0181 11.2375 68.0181 9.60038C68.0181 9.3438 68.0326 9.09416 68.0619 8.84705C68.2271 7.41194 68.8727 6.24317 69.9938 5.33791C71.0522 4.48498 72.28 4.05725 73.678 4.05725C75.8817 4.05725 77.5954 5.13587 78.8186 7.29563H77.19C76.7141 6.68729 76.1876 6.23844 75.6051 5.95319C75.0249 5.66824 74.399 5.52546 73.7315 5.52546C72.5862 5.52546 71.608 5.89834 70.7924 6.64442C69.9237 7.44283 69.489 8.43823 69.489 9.63347C69.489 10.8262 69.9233 11.8194 70.7924 12.6175C71.6128 13.373 72.5836 13.7506 73.7025 13.7506C75.1151 13.7506 76.2874 13.1234 77.217 11.8667H78.8769L78.8765 11.867ZM89.7472 14.9913H88.1331L86.5991 11.5272H82.0607L80.5535 14.9913H78.9393L83.6188 4.22872H85.0751L89.7472 14.9913ZM86.0289 10.1444L84.3542 6.21228L82.6602 10.1444H86.0289Z" fill="#201E1E"/>
<path d="M44.69 19.3476H42.3163V28.7702H40.8455V19.3476H38.4283V18.0076H44.69V19.3476ZM53.0121 28.7702H51.1433L47.2553 23.65H48.5684C49.3766 23.65 50.0344 23.4981 50.5441 23.1962C51.1581 22.8302 51.464 22.2792 51.464 21.5401C51.464 20.863 51.18 20.3212 50.6146 19.9174C50.1049 19.5562 49.4886 19.3759 48.7699 19.3759H46.877V28.7702H45.4061V18.0076H48.4377C50.1413 18.0076 51.3597 18.4045 52.0951 19.1978C52.6167 19.7586 52.8959 20.4952 52.9349 21.4099C52.969 22.2011 52.7117 22.9494 52.1679 23.6551C51.6244 24.3608 50.9179 24.7646 50.0466 24.8645L53.0125 28.7705L53.0121 28.7702ZM63.7759 28.7702H62.1618L60.6278 25.3061H56.0894L54.5822 28.7702H52.968L57.6475 18.0076H59.1038L63.7759 28.7702ZM60.0576 23.9233L58.3829 19.9912L56.6889 23.9233H60.0576ZM65.9187 28.7702H64.4479V18.0076H65.9187V28.7702ZM76.3914 28.7702H75.0468L69.1248 20.134V28.7702H67.6539V18.0076H69.3891L74.9202 26.0998V18.0076H76.3911V28.7702H76.3914ZM89.1383 23.5101C89.1383 25.0993 88.5072 26.4276 87.2453 27.5015C86.0923 28.4802 84.7673 28.9697 83.2697 28.9697C81.8137 28.9697 80.5344 28.4518 79.4352 27.4157C78.2628 26.311 77.6781 24.9376 77.6781 23.2961C77.6781 21.8969 78.2023 20.6591 79.251 19.578C80.3747 18.4161 81.7435 17.8365 83.355 17.8365C84.9811 17.8365 86.3524 18.3852 87.4665 19.4806C88.5806 20.5759 89.1386 21.918 89.1386 23.5101H89.1383ZM87.6674 23.472C87.6674 22.3079 87.2501 21.3122 86.4175 20.4854C85.5851 19.6612 84.5754 19.2476 83.3908 19.2476C82.2986 19.2476 81.323 19.6445 80.4639 20.4378C79.5878 21.2457 79.1486 22.1793 79.1486 23.2412C79.1486 24.6763 79.6486 25.7881 80.651 26.577C81.4469 27.2017 82.3475 27.5154 83.3473 27.5154C84.4199 27.5154 85.3591 27.2112 86.165 26.6032C87.1674 25.8524 87.6674 24.8071 87.6674 23.4716V23.472ZM99.6715 18.0073L95.1282 28.7699H93.8419L89.3617 18.0073H90.9807L94.4974 26.6816L98.0335 18.0073H99.6718H99.6715ZM110.088 28.7699H108.474L106.94 25.3058H102.402L100.894 28.7699H99.2803L103.96 18.0073H105.416L110.088 28.7699ZM106.37 23.923L104.695 19.9909L103.001 23.923H106.37ZM116.061 19.3469H113.687V28.7695H112.216V19.3469H109.799V18.007H116.061V19.3469ZM118.248 28.7695H116.777V18.007H118.248V28.7695ZM131.006 23.5095C131.006 25.0987 130.375 26.427 129.113 27.5009C127.96 28.4796 126.635 28.9691 125.138 28.9691C123.682 28.9691 122.403 28.4512 121.303 27.4151C120.131 26.3103 119.546 24.937 119.546 23.2954C119.546 21.8963 120.07 20.6585 121.119 19.5773C122.243 18.4155 123.612 17.8358 125.223 17.8358C126.849 17.8358 128.221 18.3846 129.335 19.4799C130.449 20.5753 131.007 21.9174 131.007 23.5095H131.006ZM129.536 23.4713C129.536 22.3073 129.118 21.3116 128.286 20.4848C127.453 19.6605 126.444 19.247 125.259 19.247C124.167 19.247 123.191 19.6438 122.332 20.4372C121.456 21.2451 121.017 22.1787 121.017 23.2406C121.017 24.6757 121.517 25.7874 122.519 26.5764C123.315 27.2011 124.216 27.5147 125.215 27.5147C126.288 27.5147 127.227 27.2106 128.033 26.6025C129.036 25.8517 129.536 24.8065 129.536 23.471V23.4713ZM141.001 28.7695H139.656L133.734 20.1333V28.7695H132.263V18.007H133.999L139.53 26.0992V18.007H141.001V28.7695H141.001Z" fill="#201E1E"/>
<path d="M49.794 39.4259C48.5077 41.6235 46.7847 42.7214 44.6245 42.7214C43.1125 42.7214 41.802 42.2177 40.6927 41.2103C39.5204 40.1484 38.9356 38.7965 38.9356 37.1593C38.9356 36.9028 38.9501 36.6531 38.9794 36.406C39.1446 34.9709 39.7902 33.8021 40.9113 32.8969C41.9697 32.0439 43.1975 31.6162 44.5955 31.6162C46.7992 31.6162 48.5129 32.6948 49.7361 34.8546H48.1075C47.6316 34.2463 47.1051 33.7974 46.5226 33.5121C45.9424 33.2272 45.3165 33.0844 44.649 33.0844C43.5037 33.0844 42.5255 33.4573 41.7099 34.2034C40.8412 35.0018 40.4065 35.9972 40.4065 37.1924C40.4065 38.3852 40.8408 39.3784 41.7099 40.1764C42.5303 40.932 43.5011 41.3096 44.62 41.3096C46.0326 41.3096 47.2049 40.6823 48.1345 39.4256H49.7944L49.794 39.4259ZM61.9002 37.2901C61.9002 38.8794 61.2691 40.2076 60.0072 41.2815C58.8542 42.2602 57.5292 42.7497 56.0316 42.7497C54.5756 42.7497 53.2963 42.2319 52.197 41.1958C51.0247 40.091 50.44 38.7177 50.44 37.0761C50.44 35.6769 50.9641 34.4392 52.0129 33.358C53.1366 32.1962 54.5054 31.6165 56.1169 31.6165C57.743 31.6165 59.1143 32.1653 60.2284 33.2606C61.3425 34.3559 61.9005 35.6981 61.9005 37.2901H61.9002ZM60.4293 37.252C60.4293 36.088 60.012 35.0922 59.1794 34.2655C58.347 33.4412 57.3373 33.0277 56.1527 33.0277C55.0605 33.0277 54.0849 33.4245 53.2258 34.2179C52.3497 35.0257 51.9105 35.9594 51.9105 37.0213C51.9105 38.4564 52.4105 39.5681 53.4129 40.3571C54.2088 40.9818 55.1094 41.2954 56.1092 41.2954C57.1817 41.2954 58.121 40.9912 58.9269 40.3832C59.9293 39.6324 60.4293 38.5872 60.4293 37.2517V37.252ZM71.8947 42.5502H70.5501L64.6281 33.914V42.5502H63.1572V31.7877H64.8924L70.4235 39.8798V31.7877H71.8944V42.5502H71.8947ZM79.7048 39.4663C79.7048 40.2931 79.4283 41.0202 78.8725 41.6475C78.244 42.3627 77.4042 42.7214 76.3581 42.7214C75.3194 42.7214 74.4748 42.3933 73.8244 41.7354C73.1714 41.0798 72.8462 40.2411 72.8462 39.2242H74.4239C74.4239 39.8395 74.5988 40.3337 74.9507 40.7113C75.3097 41.1009 75.7975 41.2957 76.4141 41.2957C76.8971 41.2957 77.3218 41.1198 77.686 40.7659C78.0524 40.4141 78.2346 40.0009 78.2346 39.5281C78.2346 39.1407 78.1374 38.8009 77.9432 38.504C77.6811 38.1049 77.1254 37.7652 76.2712 37.4871C75.2179 37.1426 74.5382 36.8552 74.2349 36.6222C73.5626 36.1113 73.2251 35.3463 73.2251 34.3247C73.2251 33.5311 73.5455 32.8732 74.1863 32.355C74.7833 31.8633 75.4968 31.6162 76.3269 31.6162C77.2394 31.6162 78.0015 31.9346 78.613 32.5687C79.1665 33.1509 79.4453 33.7804 79.4453 34.4622V34.8187H77.9989C77.8341 33.6426 77.2758 33.0557 76.3269 33.0557C76.2686 33.0368 76.2103 33.027 76.1498 33.027C75.8271 33.027 75.5138 33.1484 75.2154 33.3908C74.8683 33.6688 74.696 34.0061 74.696 34.4004C74.696 35.2177 75.0576 35.781 75.7785 36.0873L77.9629 36.7691C78.8342 37.1493 79.3973 37.8168 79.6498 38.7694C79.6765 38.9689 79.6958 39.0972 79.7055 39.152V39.4657L79.7048 39.4663ZM88.2066 38.5872C88.2066 39.9129 87.8161 40.9559 87.032 41.7115C86.3404 42.3838 85.4713 42.7214 84.4278 42.7214C83.4035 42.7214 82.5371 42.3983 81.8309 41.7543C81.0421 41.0391 80.6489 40.0888 80.6489 38.9008V31.7874H82.1198V38.846C82.1198 39.5423 82.3213 40.1266 82.7264 40.5994C83.1607 41.1006 83.7262 41.3525 84.4278 41.3525C85.1706 41.3525 85.7553 41.0697 86.1778 40.5043C86.5494 40.0028 86.7361 39.3733 86.7361 38.6156V31.7874H88.207V38.5872H88.2066ZM95.6964 42.5502H89.8861V31.7877H91.357V41.1961L95.6964 41.1674V42.5502ZM101.728 33.1276H99.3539V42.5502H97.883V33.1276H95.4659V31.7877H101.728V33.1276ZM103.914 42.5502H102.443V31.7877H103.914V42.5502ZM114.387 42.5502H113.042L107.12 33.914V42.5502H105.649V31.7877H107.385L112.916 39.8798V31.7877H114.387V42.5502H114.387ZM127.25 37.3472C127.027 39.1243 126.323 40.4929 125.136 41.4552C124.1 42.2987 122.845 42.7217 121.377 42.7217C119.811 42.7217 118.469 42.1799 117.35 41.0965C116.231 40.0132 115.673 38.7038 115.673 37.1716C115.673 35.4919 116.28 34.1211 117.493 33.0589C118.588 32.0966 119.865 31.6168 121.318 31.6168C122.522 31.6168 123.597 31.909 124.544 32.4912C125.488 33.0734 126.206 33.898 126.694 34.9646H125.039C124.675 34.3348 124.151 33.8504 123.469 33.5084C122.828 33.1875 122.122 33.0283 121.35 33.0283C120.095 33.0283 119.056 33.4702 118.239 34.3566C117.489 35.1666 117.115 36.1053 117.115 37.1694C117.115 38.3788 117.586 39.391 118.53 40.2058C119.377 40.9424 120.321 41.3105 121.364 41.3105C122.122 41.3105 122.862 41.1252 123.58 40.7545C124.52 40.2748 125.141 39.5952 125.442 38.7161H119.69V37.3475H127.25V37.3472Z" fill="#201E1E"/>
<path fill-rule="evenodd" clip-rule="evenodd" d="M0.000847756 15.5743C0.000847756 18.7433 1.44658 22.3656 3.63964 24.653C5.91545 27.0274 7.20147 30.0095 7.8857 33.217C8.1845 34.6168 7.41849 35.2674 9.38488 35.39C9.47632 35.2848 9.59159 35.1921 9.73005 35.1196C10.0066 34.9736 20.129 34.9365 21.4285 35.032C21.8194 35.06 22.1276 35.2123 22.3262 35.4253C23.0674 35.3844 23.6853 35.176 23.7359 34.3959C23.8177 33.1367 23.9426 32.1857 24.3177 31.143C24.972 29.3237 25.6685 27.5236 26.8682 25.9592C27.991 24.4954 28.0055 24.8563 29.4412 22.7684C30.0887 21.8266 31.0286 19.8676 31.2498 18.7566C31.8023 15.9822 31.775 14.7201 31.3603 12.5417C31.3261 12.7268 31.2894 12.9193 31.2498 13.1195C31.0283 14.2306 30.0887 16.1896 29.4412 17.1317C28.0055 19.2196 27.991 18.858 26.8682 20.3218C25.6685 21.8865 24.972 23.6869 24.3177 25.5056C23.9426 26.5486 23.8177 27.4996 23.7359 28.7585C23.6519 30.0455 22.0255 29.7766 20.8483 29.7672L10.3289 29.7744C7.19342 29.7908 8.22475 29.1664 7.8857 27.5797C7.2018 24.3728 5.91577 21.3907 3.63964 19.0163C2.0297 17.3359 0.82224 14.9373 0.293857 12.526C0.254575 12.7255 0.217868 12.9279 0.184703 13.133C-0.0261993 14.4266 0.00116974 13.917 0.00116974 15.574L0.000847756 15.5743Z" fill="#3E4095"/>
<path fill-rule="evenodd" clip-rule="evenodd" d="M9.73161 37.3507C8.75856 37.862 8.93501 39.3538 10.3231 39.3844C12.0853 39.4235 21.4262 39.5105 21.9202 39.2356C23.0507 38.6071 22.635 37.3513 21.4301 37.2631C20.1309 37.1679 10.0082 37.2054 9.73193 37.351L9.73161 37.3507Z" fill="#3E4095"/>
<path fill-rule="evenodd" clip-rule="evenodd" d="M13.675 42.6579C15.4704 42.6579 19.7725 43.2713 19.1356 41.3561C18.839 40.4644 17.7964 40.6113 16.7352 40.6119C15.9985 40.6122 13.6418 40.4745 13.1511 40.674C12.5477 40.9192 12.0506 42.6579 13.6753 42.6579H13.675Z" fill="#3E4095"/>
<path fill-rule="evenodd" clip-rule="evenodd" d="M23.8681 20.2857L24.041 18.5224C23.9216 18.2854 23.862 18.4061 23.701 17.9611C23.54 17.5154 23.6389 17.6229 23.6431 17.1655C23.6489 16.5701 23.1788 17.2185 23.7764 15.9797C24.1061 15.2964 24.8634 14.4267 25.4256 14.0204C26.4537 13.2778 26.5007 13.014 27.2542 12.2389C27.4998 11.9868 28.3322 10.1072 28.0414 9.67349C28.0273 9.67318 26.5049 10.1097 26.2943 10.1211C25.8725 10.1428 25.7482 10.3502 25.4987 10.2699C25.1896 10.1702 25.3692 9.99121 24.8734 9.78633L25.0907 9.48153L23.4347 8.20182C23.2512 7.92885 23.1849 7.44565 22.9643 7.24266C22.5863 6.89499 22.5087 7.08537 22.4269 6.38279C22.369 5.8895 22.2691 5.7319 21.903 5.48541C21.6416 5.3089 21.7665 5.27013 21.6809 5.00568C21.6799 5.00284 20.3826 3.11573 20.3965 2.79454L20.9854 3.54819L21.1705 3.50343L21.0011 2.23159C20.5591 2.28801 19.9119 2.11623 19.6298 2.19156C18.8738 2.39329 19.207 2.42513 18.3312 2.21899C18.0253 2.14649 17.2963 2.01631 17.05 1.89086C15.9353 1.32381 15.9665 1.74177 15.7685 2.62749L12.3532 1.24533L12.8117 0.758659L12.7415 0.15032L12.2163 -3.05176e-05C12.0911 0.174591 9.89802 0.0790849 9.44176 0.305715C8.4539 0.797113 8.52249 0.717367 7.70399 0.712639C7.30923 0.710748 7.50178 0.53392 7.22326 0.456381C6.8723 0.602634 7.03619 1.03162 6.26181 1.32255C5.99069 1.42405 5.48356 1.89496 5.37666 2.21678C5.12003 2.98776 5.30647 2.78193 4.55752 3.22259C4.26741 3.39342 4.12058 3.30454 3.929 3.51099C3.72615 3.72974 3.7928 3.7329 3.48562 3.93967C3.29082 4.07111 1.9433 5.77382 1.99095 5.99068C2.07692 6.38342 2.31165 6.0036 2.12168 6.56056C2.01285 6.87923 2.18414 6.92588 2.05503 7.3161C1.81547 8.0376 1.90434 8.03634 1.45033 8.49937L1.54403 8.49748L1.54178 9.46262C1.83833 9.6716 1.88405 9.57704 2.04054 9.83393C2.16998 10.0461 2.27849 10.1135 2.44592 10.2957C2.88254 10.7701 2.63911 11.0768 3.06414 11.3655C3.59896 11.7289 4.61548 12.7763 5.22565 12.5292C5.67901 12.3455 6.17068 12.2433 6.75413 12.3647C7.85597 12.5945 7.80091 11.8686 9.3793 11.8383C10.1147 11.8247 9.93923 12.1998 10.2583 12.6663L11.3666 12.5327C12.1043 13.3112 11.7788 12.858 11.7034 13.8067C11.6564 14.4043 11.3219 14.6745 11.6673 15.1633C12.2865 16.0399 12.8072 16.0667 13.1585 17.488C13.2222 17.7464 13.4447 18.9228 13.343 19.1314C13.2535 19.3139 13.059 19.359 12.9312 19.6783C12.8365 19.9141 12.8284 20.2144 12.7582 20.4568C12.4308 21.5856 13.9853 19.9431 14.3656 20.8549C14.4419 21.0384 14.6226 22.1447 14.6834 22.4265C14.8064 22.9977 15.1838 23.0339 15.4307 23.5925C15.5483 23.8575 15.623 24.0136 15.7647 24.2125C16.0831 24.6594 15.8239 24.6147 15.8242 24.8678C15.8245 25.4849 16.5509 25.4332 17.0542 25.3428C18.7752 25.0323 17.1618 24.6931 18.4136 23.548C18.7698 23.2227 18.469 24.9806 18.7147 24.8035C19.2856 24.3924 19.0702 23.844 19.1961 23.5111C19.7534 23.235 20.0664 23.4219 20.2078 22.7751C20.3932 21.9263 21.4423 22.6957 21.4246 22.2204L23.8681 20.2847V20.2857Z" fill="#3E4095"/>
<path fill-rule="evenodd" clip-rule="evenodd" d="M20.1664 12.5433C20.423 12.5433 20.6329 12.7488 20.6329 13.0001V29.7508C20.6329 30.0023 20.423 30.2075 20.1664 30.2075C19.9098 30.2075 19.6995 30.0023 19.6995 29.7508V13.0001C19.6995 12.7485 19.9094 12.5433 20.1664 12.5433Z" fill="#3E4095"/>
<path fill-rule="evenodd" clip-rule="evenodd" d="M11.5036 12.5433C11.7602 12.5433 11.9698 12.7488 11.9698 13.0001V29.7508C11.9698 30.0023 11.7602 30.2075 11.5036 30.2075C11.2466 30.2075 11.0367 30.0023 11.0367 29.7508V13.0001C11.0367 12.7485 11.2466 12.5433 11.5036 12.5433Z" fill="#3E4095"/>
<path d="M39.8251 52.8859H39.1673V51.9201H39.8251V52.8859ZM41.4631 52.8859H40.8053V51.9201H41.4631V52.8859ZM43.101 52.8859H42.4432V51.9201H43.101V52.8859ZM47.4733 51.1204C47.4733 51.6459 47.3059 52.0821 46.971 52.4279C46.63 52.7806 46.1924 52.9574 45.6586 52.9574C45.1653 52.9574 44.7776 52.7995 44.4956 52.4846V54.0007H43.8683V49.5003H44.4711V49.9038C44.6253 49.7468 44.7979 49.6276 44.9889 49.5482C45.1785 49.4688 45.3878 49.4291 45.6161 49.4291C46.0991 49.4291 46.5235 49.5832 46.8879 49.8921C47.2788 50.2218 47.4736 50.6312 47.4736 51.1211L47.4733 51.1204ZM46.8338 51.1989C46.8338 50.873 46.716 50.5969 46.4806 50.3734C46.2453 50.149 45.9609 50.0368 45.627 50.0368C45.279 50.0368 44.9937 50.16 44.7683 50.4062C44.5622 50.6338 44.4589 50.9039 44.4589 51.2169C44.4589 51.504 44.5493 51.7546 44.73 51.968C44.9521 52.2303 45.2648 52.3614 45.6657 52.3614C45.9996 52.3614 46.2775 52.2501 46.4999 52.0266C46.7221 51.8032 46.8338 51.5271 46.8338 51.1989ZM49.423 50.0484C49.1857 50.0484 48.9764 50.1178 48.7938 50.2581C48.6 50.4071 48.5034 50.5959 48.5034 50.8226V52.8862H47.8884V49.5003H48.4789V49.7663C48.6982 49.541 49.0127 49.4284 49.4226 49.4284V50.0484H49.423ZM53.1071 51.0448C53.1071 51.5624 52.9426 52.0065 52.6139 52.3749C52.2709 52.7636 51.8385 52.9571 51.3169 52.9571C50.8552 52.9571 50.4533 52.8001 50.1101 52.4853C49.7337 52.1414 49.5447 51.6944 49.5447 51.1431C49.5447 50.6584 49.7272 50.2508 50.0917 49.9211C50.4469 49.6002 50.8751 49.4401 51.3768 49.4401C51.7748 49.4401 52.1544 49.5901 52.5157 49.8912C52.9104 50.2209 53.1075 50.6054 53.1075 51.0445L53.1071 51.0448ZM52.4738 51.1671C52.4738 50.8629 52.3601 50.5988 52.1318 50.3734C51.9045 50.149 51.6376 50.0368 51.3301 50.0368C51.0075 50.0368 50.7302 50.1462 50.5 50.3655C50.2695 50.584 50.1539 50.8513 50.1539 51.1674C50.1539 51.5081 50.2624 51.7924 50.4807 52.0188C50.7038 52.2514 50.9891 52.3674 51.3362 52.3674C51.6173 52.3674 51.8691 52.2671 52.0903 52.0654C52.346 51.8331 52.4741 51.533 52.4741 51.1674L52.4738 51.1671ZM55.1856 50.0901H54.3697V52.8859H53.7547V50.0901H53.2614V49.524H53.7547C53.7547 48.7728 54.2315 48.3974 55.1856 48.3974V48.9755C54.9338 48.9755 54.747 49.0083 54.6234 49.0738C54.454 49.163 54.3697 49.3213 54.3697 49.5479C54.3697 49.5558 54.3697 49.5618 54.3697 49.5659V49.5243H55.1856V50.0904V50.0901ZM58.8038 51.4372H55.893C55.9426 51.7281 56.0878 51.9608 56.3274 52.1335C56.5395 52.2854 56.7678 52.3611 57.0145 52.3611C57.2479 52.3611 57.4672 52.2965 57.671 52.1685C57.8832 52.0364 58.0303 51.8665 58.1115 51.6579H58.751C58.5845 52.1029 58.3246 52.4389 57.9714 52.6662C57.67 52.86 57.3413 52.9574 56.9839 52.9574C56.5202 52.9574 56.1232 52.7945 55.7925 52.4686C55.4412 52.1209 55.2658 51.6916 55.2658 51.181C55.2658 50.6514 55.4535 50.2193 55.8279 49.8855C56.1689 49.5804 56.5679 49.4284 57.0257 49.4284C57.4917 49.4284 57.8925 49.5785 58.2274 49.8795C58.6119 50.2234 58.8038 50.6842 58.8038 51.2623V51.4372ZM58.1704 50.8708C58.0973 50.6193 57.9563 50.4147 57.7483 50.2558C57.5403 50.0979 57.3046 50.0185 57.0409 50.0185C56.7121 50.0185 56.4391 50.1247 56.2227 50.3365C56.0723 50.4847 55.9658 50.6625 55.9049 50.8711H58.1701L58.1704 50.8708ZM61.1623 52.0342C61.1247 52.3431 60.9846 52.5808 60.7412 52.7475C60.5374 52.8875 60.312 52.9571 60.0663 52.9571C59.7211 52.9571 59.449 52.844 59.2494 52.6164C59.0597 52.4008 58.9641 52.1215 58.9641 51.778L59.5872 51.7512C59.5872 51.9151 59.6287 52.0569 59.7131 52.1773C59.8084 52.3154 59.9352 52.385 60.0946 52.385C60.2215 52.385 60.331 52.3393 60.4224 52.247C60.5138 52.1546 60.5596 52.0462 60.5596 51.922C60.5596 51.8057 60.5261 51.7055 60.4581 51.6219C60.3831 51.5286 60.2624 51.4621 60.0969 51.4211C59.8412 51.3565 59.6351 51.2711 59.4796 51.1649C59.2513 51.007 59.1212 50.8024 59.0919 50.5499C59.0878 50.5171 59.0858 50.4664 59.0858 50.398C59.0858 50.0998 59.1995 49.8574 59.4278 49.6737C59.6197 49.5176 59.8367 49.4401 60.0795 49.4401C60.3422 49.4401 60.5708 49.5195 60.7634 49.6787C60.9949 49.8694 61.1105 50.1345 61.1105 50.4765H60.4833C60.4813 50.3094 60.4427 50.1944 60.3677 50.1307C60.2926 50.0683 60.196 50.0365 60.0795 50.0365C59.9819 50.0365 59.8959 50.0623 59.8206 50.114C59.7456 50.1648 59.7018 50.2521 59.6899 50.3744L59.7253 50.5225C59.7546 50.6476 59.8998 50.7589 60.1587 50.8582C60.5232 50.9953 60.7473 51.0936 60.8307 51.1523C61.0603 51.3111 61.1749 51.5406 61.1749 51.8416V51.9321C61.1665 51.9787 61.1627 52.0125 61.1627 52.0342H61.1623ZM63.4581 52.0342C63.4204 52.3431 63.2804 52.5808 63.0369 52.7475C62.8331 52.8875 62.6077 52.9571 62.3621 52.9571C62.0169 52.9571 61.7448 52.844 61.5452 52.6164C61.3555 52.4008 61.2599 52.1215 61.2599 51.778L61.8829 51.7512C61.8829 51.9151 61.9245 52.0569 62.0088 52.1773C62.1041 52.3154 62.231 52.385 62.3904 52.385C62.5173 52.385 62.6267 52.3393 62.7182 52.247C62.8096 52.1546 62.8553 52.0462 62.8553 51.922C62.8553 51.8057 62.8219 51.7055 62.7539 51.6219C62.6789 51.5286 62.5581 51.4621 62.3926 51.4211C62.137 51.3565 61.9309 51.2711 61.7754 51.1649C61.5471 51.007 61.417 50.8024 61.3877 50.5499C61.3835 50.5171 61.3816 50.4664 61.3816 50.398C61.3816 50.0998 61.4953 49.8574 61.7236 49.6737C61.9155 49.5176 62.1325 49.4401 62.3753 49.4401C62.638 49.4401 62.8666 49.5195 63.0592 49.6787C63.2907 49.8694 63.4063 50.1345 63.4063 50.4765H62.779C62.7771 50.3094 62.7385 50.1944 62.6634 50.1307C62.5884 50.0683 62.4918 50.0365 62.3753 50.0365C62.2777 50.0365 62.1917 50.0623 62.1164 50.114C62.0414 50.1648 61.9976 50.2521 61.9857 50.3744L62.0211 50.5225C62.0504 50.6476 62.1956 50.7589 62.4545 50.8582C62.819 50.9953 63.0431 51.0936 63.1265 51.1523C63.356 51.3111 63.4707 51.5406 63.4707 51.8416V51.9321C63.4623 51.9787 63.4584 52.0125 63.4584 52.0342H63.4581ZM64.4324 49.303H63.8174V48.3851H64.4324V49.303ZM64.4324 52.8856H63.8174V49.5117H64.4324V52.8856ZM68.4415 51.0445C68.4415 51.562 68.277 52.0062 67.9482 52.3746C67.6053 52.7633 67.1729 52.9568 66.6513 52.9568C66.1895 52.9568 65.7877 52.7998 65.4445 52.4849C65.0681 52.1411 64.879 51.6941 64.879 51.1428C64.879 50.658 65.0616 50.2505 65.4261 49.9208C65.7813 49.5999 66.2095 49.4398 66.7112 49.4398C67.1091 49.4398 67.4888 49.5898 67.85 49.8908C68.2448 50.2205 68.4418 50.6051 68.4418 51.0442L68.4415 51.0445ZM67.8082 51.1668C67.8082 50.8626 67.6945 50.5985 67.4662 50.3731C67.2389 50.1487 66.972 50.0365 66.6645 50.0365C66.3418 50.0365 66.0646 50.1458 65.8344 50.3652C65.6038 50.5837 65.4882 50.8509 65.4882 51.1671C65.4882 51.5078 65.5968 51.7921 65.8151 52.0184C66.0382 52.2511 66.3235 52.3671 66.6706 52.3671C66.9517 52.3671 67.2035 52.2668 67.4247 52.0651C67.6803 51.8328 67.8085 51.5327 67.8085 51.1671L67.8082 51.1668ZM71.9023 52.8856H71.2934V50.9881C71.2934 50.7107 71.209 50.4844 71.0396 50.3104C70.8712 50.1354 70.6459 50.0481 70.3638 50.0481C70.0978 50.0481 69.8827 50.1304 69.7182 50.2956C69.555 50.4607 69.4725 50.6741 69.4725 50.9354V52.8859H68.8575V49.512H69.4542V49.8161C69.7018 49.5659 70.0154 49.4404 70.3941 49.4404C70.7969 49.4404 71.142 49.5715 71.4293 49.8328C71.7448 50.12 71.9023 50.5055 71.9023 50.9884V52.8859V52.8856ZM75.9416 52.8856H75.3388V52.4673C75.0352 52.7942 74.6276 52.9571 74.114 52.9571C73.6349 52.9571 73.2237 52.8001 72.8808 52.4853C72.5185 52.1534 72.3369 51.73 72.3369 51.2156C72.3369 50.6842 72.5279 50.247 72.9104 49.9031C73.2636 49.586 73.6796 49.4281 74.1587 49.4281C74.6601 49.4281 75.0539 49.5971 75.3392 49.9347V49.5113H75.9419V52.8852L75.9416 52.8856ZM75.3388 51.2163C75.3388 50.8894 75.2274 50.6111 75.0049 50.3807C74.7818 50.1512 74.5055 50.0358 74.1768 50.0358C73.8377 50.0358 73.5476 50.1559 73.3061 50.3974C73.0778 50.6221 72.9642 50.8632 72.9642 51.1198C72.9642 51.4577 73.0698 51.7455 73.282 51.985C73.5022 52.2353 73.7823 52.3604 74.1233 52.3604C74.4501 52.3604 74.7354 52.2492 74.9769 52.0266C75.2184 51.8041 75.3392 51.534 75.3392 51.2159L75.3388 51.2163ZM77.112 52.8856H76.497V48.3848H77.112V52.8856ZM78.2892 49.303H77.6742V48.3851H78.2892V49.303ZM78.2892 52.8856H77.6742V49.5117H78.2892V52.8856ZM80.7878 52.0339C80.7502 52.3428 80.6101 52.5805 80.3667 52.7472C80.1629 52.8871 79.9375 52.9568 79.6918 52.9568C79.3466 52.9568 79.0745 52.8436 78.8749 52.6161C78.6853 52.4005 78.5896 52.1212 78.5896 51.7776L79.2127 51.7508C79.2127 51.9147 79.2542 52.0566 79.3386 52.177C79.4339 52.315 79.5607 52.3847 79.7201 52.3847C79.847 52.3847 79.9565 52.339 80.0479 52.2467C80.1394 52.1543 80.1851 52.0459 80.1851 51.9217C80.1851 51.8054 80.1516 51.7051 80.0837 51.6216C80.0086 51.5283 79.8879 51.4618 79.7224 51.4208C79.4667 51.3562 79.2607 51.2708 79.1051 51.1646C78.8768 51.0067 78.7468 50.8021 78.7175 50.5496C78.7133 50.5168 78.7113 50.4661 78.7113 50.3977C78.7113 50.0995 78.825 49.8571 79.0533 49.6734C79.2452 49.5173 79.4622 49.4398 79.705 49.4398C79.9677 49.4398 80.1964 49.5192 80.3889 49.6784C80.6204 49.8691 80.736 50.1342 80.736 50.4762H80.1088C80.1068 50.3091 80.0682 50.1941 79.9932 50.1304C79.9182 50.068 79.8216 50.0362 79.705 50.0362C79.6074 50.0362 79.5215 50.062 79.4461 50.1137C79.3711 50.1644 79.3273 50.2517 79.3154 50.374L79.3508 50.5222C79.3801 50.6473 79.5253 50.7586 79.7842 50.8579C80.1487 50.995 80.3728 51.0933 80.4562 51.152C80.6858 51.3108 80.8004 51.5403 80.8004 51.8413V51.9318C80.792 51.9784 80.7882 52.0121 80.7882 52.0339H80.7878ZM86.1283 52.8856H85.5133V50.8686C85.5133 50.6082 85.4332 50.4065 85.2738 50.2634C85.1134 50.1194 84.9196 50.0478 84.6923 50.0478C84.4833 50.0478 84.3088 50.1093 84.1697 50.2325C84.0306 50.3558 83.9607 50.5316 83.9607 50.7611V52.8852H83.3274V50.8336C83.3274 50.5931 83.2401 50.3974 83.0656 50.2483C82.9081 50.114 82.7166 50.0475 82.4902 50.0475C82.2619 50.0475 82.0832 50.12 81.9544 50.264C81.8266 50.409 81.7625 50.595 81.7625 50.8213V52.8849H81.1475V49.511H81.7441V49.7424C81.9441 49.5407 82.202 49.4395 82.5176 49.4395C82.9864 49.4395 83.3641 49.6182 83.6494 49.975C83.9092 49.6264 84.2544 49.4515 84.6846 49.4515C85.0642 49.4515 85.3961 49.5747 85.6772 49.8212C85.9786 50.0844 86.129 50.4103 86.129 50.7989V52.8852L86.1283 52.8856ZM93.053 49.5117L91.7541 52.8856H91.1269L90.5048 50.965L89.8876 52.8856H89.2645L87.9746 49.5117H88.618L89.5669 52.0103L90.2579 49.9031H90.7511L91.4405 52.0084L92.4026 49.5117H93.053ZM93.8458 49.303H93.2308V48.3851H93.8458V49.303ZM93.8458 52.8856H93.2308V49.5117H93.8458V52.8856ZM96.1557 50.0837H95.4006V52.8856H94.7856V50.0837H94.1098V49.5117H94.7856V48.3851H95.4006V49.5117H96.1557V50.0837ZM99.4744 52.8856H98.8594V50.9471C98.8594 50.6839 98.7741 50.4673 98.6038 50.2993C98.4322 50.1313 98.2119 50.0478 97.9421 50.0478C97.6771 50.0478 97.463 50.1254 97.2988 50.2801C97.1333 50.4361 97.0512 50.642 97.0512 50.897V52.8849H96.4239V48.3842H97.0512V49.7919C97.2907 49.5564 97.5921 49.4392 97.9543 49.4392C98.352 49.4392 98.6984 49.5722 98.9937 49.8376C99.3144 50.1247 99.4748 50.4941 99.4748 50.9465V52.8849L99.4744 52.8856ZM102.272 49.303H101.657V48.3851H102.272V49.303ZM102.272 52.8856H101.657V49.5117H102.272V52.8856ZM105.878 52.8856H105.27V50.9881C105.27 50.7107 105.185 50.4844 105.016 50.3104C104.847 50.1354 104.622 50.0481 104.34 50.0481C104.074 50.0481 103.859 50.1304 103.694 50.2956C103.531 50.4607 103.449 50.6741 103.449 50.9354V52.8859H102.834V49.512H103.43V49.8161C103.678 49.5659 103.992 49.4404 104.37 49.4404C104.773 49.4404 105.118 49.5715 105.405 49.8328C105.721 50.12 105.878 50.5055 105.878 50.9884V52.8859V52.8856ZM109.479 52.8856H108.87V50.9881C108.87 50.7107 108.786 50.4844 108.617 50.3104C108.448 50.1354 108.223 50.0481 107.941 50.0481C107.675 50.0481 107.46 50.1304 107.295 50.2956C107.132 50.4607 107.05 50.6741 107.05 50.9354V52.8859H106.435V49.512H107.031V49.8161C107.279 49.5659 107.592 49.4404 107.971 49.4404C108.374 49.4404 108.719 49.5715 109.006 49.8328C109.322 50.12 109.479 50.5055 109.479 50.9884V52.8859V52.8856ZM113.482 51.0445C113.482 51.562 113.318 52.0062 112.989 52.3746C112.646 52.7633 112.214 52.9568 111.692 52.9568C111.23 52.9568 110.828 52.7998 110.485 52.4849C110.109 52.1411 109.92 51.6941 109.92 51.1428C109.92 50.658 110.102 50.2505 110.467 49.9208C110.822 49.5999 111.25 49.4398 111.752 49.4398C112.15 49.4398 112.529 49.5898 112.891 49.8908C113.285 50.2205 113.483 50.6051 113.483 51.0442L113.482 51.0445ZM112.849 51.1668C112.849 50.8626 112.735 50.5985 112.507 50.3731C112.28 50.1487 112.013 50.0365 111.705 50.0365C111.383 50.0365 111.105 50.1458 110.875 50.3652C110.645 50.5837 110.529 50.8509 110.529 51.1671C110.529 51.5078 110.637 51.7921 110.856 52.0184C111.079 52.2511 111.364 52.3671 111.711 52.3671C111.992 52.3671 112.244 52.2668 112.465 52.0651C112.721 51.8328 112.849 51.5327 112.849 51.1671L112.849 51.1668ZM116.997 49.5117L115.54 52.8856H114.969L113.533 49.5117H114.2L115.26 52.0033L116.323 49.5117H116.997ZM120.658 52.8856H120.056V52.4673C119.752 52.7942 119.344 52.9571 118.831 52.9571C118.352 52.9571 117.94 52.8001 117.598 52.4853C117.235 52.1534 117.054 51.73 117.054 51.2156C117.054 50.6842 117.245 50.247 117.627 49.9031C117.98 49.586 118.396 49.4281 118.876 49.4281C119.377 49.4281 119.771 49.5971 120.056 49.9347V49.5113H120.659V52.8852L120.658 52.8856ZM120.056 51.2163C120.056 50.8894 119.944 50.6111 119.722 50.3807C119.499 50.1512 119.222 50.0358 118.894 50.0358C118.555 50.0358 118.264 50.1559 118.023 50.3974C117.795 50.6221 117.681 50.8632 117.681 51.1198C117.681 51.4577 117.787 51.7455 117.999 51.985C118.219 52.2353 118.499 52.3604 118.84 52.3604C119.167 52.3604 119.452 52.2492 119.694 52.0266C119.935 51.8041 120.056 51.534 120.056 51.2159L120.056 51.2163ZM122.961 50.0837H122.206V52.8856H121.591V50.0837H120.915V49.5117H121.591V48.3851H122.206V49.5117H122.961V50.0837ZM123.838 49.3027H123.223V48.3848H123.838V49.3027ZM123.838 52.8852H123.223V49.5113H123.838V52.8852ZM127.847 51.0442C127.847 51.5617 127.683 52.0058 127.354 52.3743C127.011 52.7629 126.578 52.9565 126.057 52.9565C125.595 52.9565 125.193 52.7995 124.85 52.4846C124.474 52.1407 124.285 51.6938 124.285 51.1425C124.285 50.6577 124.467 50.2502 124.832 49.9205C125.187 49.5996 125.615 49.4395 126.117 49.4395C126.515 49.4395 126.894 49.5895 127.256 49.8905C127.65 50.2202 127.847 50.6048 127.847 51.0438L127.847 51.0442ZM127.214 51.1665C127.214 50.8623 127.1 50.5982 126.872 50.3728C126.644 50.1484 126.378 50.0362 126.07 50.0362C125.747 50.0362 125.47 50.1455 125.24 50.3649C125.009 50.5833 124.894 50.8506 124.894 51.1668C124.894 51.5075 125.002 51.7918 125.221 52.0181C125.444 52.2508 125.729 52.3667 126.076 52.3667C126.357 52.3667 126.609 52.2665 126.83 52.0648C127.086 51.8325 127.214 51.5324 127.214 51.1668L127.214 51.1665ZM131.308 52.8852H130.699V50.9877C130.699 50.7104 130.615 50.4841 130.445 50.3101C130.277 50.1351 130.051 50.0478 129.769 50.0478C129.503 50.0478 129.288 50.1301 129.124 50.2952C128.961 50.4604 128.878 50.6738 128.878 50.9351V52.8856H128.263V49.5117H128.86V49.8158C129.107 49.5656 129.421 49.4401 129.8 49.4401C130.202 49.4401 130.548 49.5712 130.835 49.8325C131.15 50.1197 131.308 50.5052 131.308 50.9881V52.8856V52.8852Z" fill="#201E1E"/>
</svg>
