<svg width="16" height="16" viewBox="0 0 16 16" fill="none" xmlns="http://www.w3.org/2000/svg">
<path opacity="0.6" fill-rule="evenodd" clip-rule="evenodd" d="M15.6567 1.46679V14.8465C15.6567 15.0882 15.2745 15.4492 15.0128 15.4546H11.1491V9.98112H13.0809V7.54846H11.1491V6.33212C10.868 5.55078 11.0533 5.11875 11.7931 5.11579H13.0809V3.29129C13.0452 3.12267 12.3156 3.06252 11.1491 3.29129C9.67523 3.06252 8.45924 4.09064 8.57336 5.72396V7.54846H6.64154V9.98112H8.57336V15.4546H0.84607C0.584296 15.4546 0.202129 15.0937 0.202129 14.8465V1.46679C0.202129 1.21956 0.584296 0.858627 0.84607 0.858627H15.0128C15.2745 0.858627 15.6567 1.21409 15.6567 1.46679Z" fill="white"/>
</svg>
