<svg width="19" height="15" viewBox="0 0 19 15" fill="none" xmlns="http://www.w3.org/2000/svg">
<path opacity="0.6" fill-rule="evenodd" clip-rule="evenodd" d="M18.0303 2.49568C17.3676 2.77181 16.6523 2.95918 15.9054 3.03807C16.6733 2.60416 17.2519 1.93356 17.5359 1.11503C16.8206 1.5095 16.0316 1.80535 15.1901 1.95328C14.5168 1.28268 13.5491 0.858627 12.4866 0.858627C10.4458 0.858627 8.78374 2.41678 8.78374 4.32996C8.78374 4.60609 8.8153 4.86249 8.87842 5.1189C5.80674 4.97097 3.07168 3.59033 1.25182 1.48978C0.936231 2.00259 0.746881 2.59429 0.746881 3.23531C0.746881 4.43844 1.39909 5.50351 2.39844 6.1248C1.78831 6.10507 1.22026 5.94729 0.725842 5.69088C0.725842 5.70074 0.725842 5.72047 0.725842 5.73033C0.725842 7.40682 1.9987 8.81705 3.69233 9.13263C3.37674 9.21152 3.05064 9.25097 2.71402 9.25097C2.47207 9.25097 2.24064 9.23125 2.01974 9.1918C2.49311 10.5724 3.86064 11.5783 5.48064 11.5981C4.2183 12.5251 2.61934 13.0872 0.883634 13.0872C0.589089 13.0872 0.294545 13.0675 0 13.0379C1.64103 14.0241 3.58713 14.596 5.66999 14.596C12.4761 14.596 16.2 9.31014 16.2 4.72443C16.2 4.5765 16.2 4.42858 16.1894 4.27079C16.9048 3.80729 17.5359 3.19586 18.0303 2.49568Z" fill="white"/>
</svg>
