<svg width="17" height="16" viewBox="0 0 17 16" fill="none" xmlns="http://www.w3.org/2000/svg">
<g opacity="0.6" clip-path="url(#clip0_113_85)">
<path d="M9.96465 8.15663C9.96465 8.86509 9.35647 9.43948 8.60634 9.43948C7.8562 9.43948 7.24802 8.86509 7.24802 8.15663C7.24802 7.44817 7.8562 6.87378 8.60634 6.87378C9.35647 6.87378 9.96465 7.44817 9.96465 8.15663Z" fill="white"/>
<path d="M10.9004 4.27959H6.31229C5.3136 4.27959 4.50121 5.04685 4.50121 5.99005V10.3232C4.50121 11.2664 5.3136 12.0337 6.31229 12.0337H10.9004C11.8991 12.0337 12.7115 11.2664 12.7115 10.3232V5.99005C12.7115 5.04685 11.8991 4.27959 10.9004 4.27959ZM8.60633 10.2947C7.35803 10.2947 6.34248 9.3356 6.34248 8.15665C6.34248 6.97769 7.35803 6.01856 8.60633 6.01856C9.85464 6.01856 10.8702 6.97769 10.8702 8.15665C10.8702 9.3356 9.85464 10.2947 8.60633 10.2947ZM11.2022 6.13259C10.9521 6.13259 10.7494 5.94117 10.7494 5.70498C10.7494 5.46879 10.9521 5.27736 11.2022 5.27736C11.4523 5.27736 11.655 5.46879 11.655 5.70498C11.655 5.94117 11.4523 6.13259 11.2022 6.13259Z" fill="white"/>
<path d="M12.2587 0.858627H4.95398C2.70711 0.858627 0.879044 2.58513 0.879044 4.70718V11.6061C0.879044 13.7281 2.70711 15.4546 4.95398 15.4546H12.2587C14.5056 15.4546 16.3336 13.7281 16.3336 11.6061V4.70718C16.3336 2.58513 14.5056 0.858627 12.2587 0.858627ZM13.617 10.3232C13.617 11.7379 12.3983 12.8889 10.9004 12.8889H6.31229C4.81438 12.8889 3.59567 11.7379 3.59567 10.3232V5.99003C3.59567 4.57533 4.81438 3.42433 6.31229 3.42433H10.9004C12.3983 3.42433 13.617 4.57533 13.617 5.99003V10.3232Z" fill="white"/>
</g>
<defs>
<clipPath id="clip0_113_85">
<rect width="15.4546" height="14.596" fill="white" transform="translate(0.879044 0.858627)"/>
</clipPath>
</defs>
</svg>
