<svg width="17" height="15" viewBox="0 0 17 15" fill="none" xmlns="http://www.w3.org/2000/svg">
<path opacity="0.6" fill-rule="evenodd" clip-rule="evenodd" d="M2.70343 0C1.56988 0 0.828438 0.734874 0.828438 1.70126C0.828438 2.64658 1.54843 3.40376 2.65945 3.40376H2.68158C3.83709 3.40376 4.55572 2.64673 4.55572 1.70126C4.53394 0.734874 3.83709 0 2.70343 0ZM16.2831 8.94862V14.5958H12.9707V9.32683C12.9707 8.00322 12.4916 7.09991 11.2926 7.09991C10.3773 7.09991 9.83262 7.70867 9.593 8.29755C9.50561 8.50808 9.48312 8.8011 9.48312 9.09578V14.5958H6.16959C6.16959 14.5958 6.21421 5.67189 6.16959 4.7473H9.48279V6.14329C9.47962 6.14822 9.476 6.15333 9.47239 6.15842C9.46837 6.16411 9.46436 6.16977 9.46102 6.17511H9.48279V6.14329C9.92299 5.47319 10.7091 4.51593 12.4687 4.51593C14.6488 4.5159 16.2831 5.92353 16.2831 8.94862ZM4.33756 14.5959H1.02528V4.7474H4.33756V14.5959Z" fill="white"/>
</svg>
